<svg width="20" height="26" viewBox="0 0 20 26" fill="none" xmlns="http://www.w3.org/2000/svg">
<path d="M18.1503 8.11176C17.8758 5.31497 15.4652 4.36416 12.3994 4.09882L12.4078 0.203613L10.0477 0.200884L10.0473 3.99297C9.42451 3.99622 8.78587 4.00341 8.15119 4.02648L8.14766 0.21852L5.78752 0.215791L5.79098 4.09118C5.27134 4.10248 4.76757 4.10983 4.27967 4.11323L4.27572 4.09736L1.00722 4.10152L1.01223 6.62826C1.01223 6.62826 2.75758 6.59854 2.72979 6.62231C3.68971 6.61945 3.99846 7.18307 4.08516 7.6671L4.07607 12.1018C4.1435 12.1018 4.2268 12.098 4.33387 12.1219C4.25057 12.1258 4.16727 12.1296 4.08002 12.1176L4.07284 18.3214C4.02887 18.6189 3.84584 19.1026 3.18739 19.0979C3.21116 19.1256 1.46984 19.1038 1.46984 19.1038L0.994536 21.9354L4.08056 21.943C4.65571 21.9516 5.21104 21.9482 5.77031 21.9608L5.76974 25.8877L8.12987 25.8905L8.13834 21.9952C8.78093 22.0039 9.42351 22.0126 10.0304 22.0133L10.0339 25.8887L12.394 25.8914L12.3946 21.9645C16.3813 21.7311 19.167 20.7347 19.5006 16.9946C19.7817 13.9922 18.3672 12.6419 16.1068 12.0919C17.4999 11.3914 18.3542 10.1508 18.1503 8.11176ZM14.8324 16.5211C14.8369 19.4525 9.79971 19.1214 8.19721 19.1155L8.19926 13.9074C9.80177 13.9132 14.8439 13.451 14.8324 16.5211ZM13.7422 9.15781C13.7351 11.8392 9.54274 11.5171 8.20997 11.5116L8.21542 6.79128C9.5482 6.79679 13.7414 6.37721 13.7422 9.15781Z" fill="#FFD233"/>
</svg>
