<svg width="16" height="22" viewBox="0 0 16 22" fill="none" xmlns="http://www.w3.org/2000/svg">
<path d="M15.6178 9.00567C15.9303 6.88067 14.3178 5.73066 12.0928 4.96816L12.8178 2.08066L11.0678 1.64316L10.3678 4.45566C9.90527 4.34316 9.43027 4.23066 8.95527 4.13066L9.65527 1.30566L7.90527 0.868164L7.19277 3.74316C6.80527 3.65566 6.43027 3.56816 6.06777 3.48066V3.46816L3.64277 2.86816L3.18027 4.74316C3.18027 4.74316 4.48027 5.04316 4.45527 5.05566C5.16777 5.23066 5.29277 5.70566 5.26777 6.08066L4.44277 9.36817C4.49277 9.38066 4.55527 9.39316 4.63027 9.43067C4.56777 9.41817 4.50527 9.40567 4.44277 9.38067L3.29277 13.9807C3.20527 14.1932 2.98027 14.5182 2.49277 14.3932C2.50527 14.4182 1.21777 14.0807 1.21777 14.0807L0.342773 16.0932L2.63027 16.6682C3.05527 16.7807 3.46777 16.8807 3.88027 16.9932L3.15527 19.9057L4.90527 20.3432L5.63027 17.4557C6.10527 17.5807 6.58027 17.7057 7.03027 17.8182L6.31777 20.6932L8.06777 21.1307L8.79277 18.2182C11.7928 18.7807 14.0428 18.5557 14.9803 15.8432C15.7428 13.6682 14.9428 12.4057 13.3678 11.5807C14.5303 11.3182 15.3928 10.5557 15.6178 9.00567ZM11.6053 14.6307C11.0678 16.8057 7.39277 15.6307 6.20527 15.3307L7.16777 11.4682C8.35527 11.7682 12.1803 12.3557 11.6053 14.6307ZM12.1553 8.96817C11.6553 10.9557 8.60527 9.94317 7.61777 9.69317L8.49277 6.19316C9.48027 6.44316 12.6678 6.90567 12.1553 8.96817Z" fill="white"/>
</svg>
