<svg width="16" height="27" viewBox="0 0 16 27" fill="none" xmlns="http://www.w3.org/2000/svg">
<path d="M7.90006 0.690689V0.703471C7.91285 0.76738 7.91285 0.844071 7.91285 0.920762L7.91285 10.1365C7.90006 10.1876 7.86172 10.2004 7.82337 10.2259C7.55495 10.3538 7.29932 10.4688 7.0309 10.5838C6.66023 10.75 6.27677 10.9289 5.9061 11.0951L4.564 11.7086C4.19333 11.8748 3.82266 12.041 3.46477 12.2071C3.03018 12.4116 2.58282 12.6034 2.14824 12.8079C1.77756 12.974 1.40689 13.153 1.02344 13.3191C0.716673 13.4597 0.409909 13.5876 0.115927 13.7282C0.0903629 13.7409 0.0647992 13.7537 0.0392355 13.7537C0.0264537 13.7537 0.0264537 13.7537 0.0136719 13.7409L0.358781 13.1658C1.02344 12.0665 1.67531 10.9801 2.33997 9.88083C3.04297 8.7049 3.75875 7.52897 4.46175 6.35304C5.11362 5.26659 5.77828 4.18013 6.43015 3.09367C6.90308 2.3012 7.38879 1.50873 7.86172 0.716253C7.8745 0.690689 7.88728 0.677907 7.88728 0.652344H7.90006C7.88728 0.665126 7.90006 0.677907 7.90006 0.690689Z" fill="#F3F3F3"/>
<path d="M15.7476 13.7411L15.7604 13.7539L13.8815 14.8659L7.97628 18.3554C7.95071 18.3682 7.92515 18.3809 7.91237 18.3937C7.87402 18.3937 7.87402 18.3554 7.87402 18.3426V18.2276V10.3284C7.87402 10.29 7.87402 10.2389 7.88681 10.2006C7.89959 10.1494 7.93793 10.1622 7.97628 10.175C8.14244 10.2517 8.32139 10.3284 8.48755 10.4051C8.98604 10.6352 9.48453 10.8652 9.98303 11.0825C10.4176 11.2742 10.8394 11.4788 11.274 11.6705C11.7086 11.8622 12.1432 12.0667 12.5777 12.2584C12.9484 12.4246 13.3319 12.6036 13.7025 12.7697C14.0732 12.9359 14.4567 13.1148 14.8273 13.281C15.1213 13.4088 15.4153 13.5494 15.7093 13.6772C15.7093 13.7156 15.7221 13.7284 15.7476 13.7411Z" fill="#8A8DA7"/>
<path d="M7.89909 26.3312C7.89909 26.344 7.8863 26.3568 7.8863 26.3695H7.87352C7.87352 26.344 7.84796 26.3312 7.83518 26.3056C7.0427 25.1936 6.25023 24.0688 5.45776 22.9568C4.6525 21.8192 3.83446 20.6688 3.02921 19.5313C2.24952 18.432 1.45704 17.32 0.677351 16.2208C0.472841 15.9268 0.268332 15.6456 0.0638226 15.3516C0.0510408 15.326 0.038259 15.3132 0.0126953 15.2749C0.0510408 15.2749 0.0766045 15.3005 0.0893863 15.3132C1.20141 15.9651 2.30064 16.617 3.41266 17.2689C4.69085 18.023 5.95625 18.7771 7.23443 19.5313L7.8863 19.9147C7.91187 19.9403 7.91187 19.9658 7.91187 19.9914L7.91187 26.1522C7.91187 26.2162 7.91187 26.2801 7.89909 26.3312Z" fill="#F3F3F3"/>
<path d="M0 13.7666L0 13.7538C0.409019 13.5749 0.805255 13.3831 1.21427 13.2042C1.73833 12.9613 2.26238 12.7313 2.78644 12.4884C3.18268 12.3095 3.59169 12.1177 3.98793 11.9388C4.5759 11.6704 5.15108 11.4147 5.73904 11.1463C6.13528 10.9674 6.53152 10.7884 6.94053 10.5967C7.22173 10.4689 7.51572 10.3411 7.79692 10.2132C7.82248 10.2005 7.86083 10.1877 7.87361 10.1621C7.88639 10.1621 7.88639 10.1749 7.87361 10.1877V18.3041C7.87361 18.3425 7.86083 18.3808 7.88639 18.4064C7.86083 18.4447 7.83526 18.4064 7.82248 18.3936C7.70744 18.3297 7.59241 18.2658 7.47737 18.1891C5.01048 16.732 2.5308 15.2621 0.0639092 13.8049C0.0511273 13.7921 0.0255637 13.7794 0 13.7666Z" fill="#C5C8D9"/>
<path d="M15.722 15.2749H15.7348C15.7348 15.3005 15.7092 15.326 15.6964 15.3516C13.3446 18.6621 10.9927 21.9854 8.64085 25.2959C8.39799 25.641 8.14236 25.9861 7.8995 26.3312C7.88672 26.3184 7.88672 26.3056 7.88672 26.2928V26.2162L7.88672 20.017V19.9019C8.42356 19.5824 8.94761 19.2756 9.48445 18.9561C11.5551 17.729 13.6258 16.5147 15.6836 15.2877C15.6964 15.3005 15.7092 15.2877 15.722 15.2749Z" fill="#C5C8D9"/>
<path d="M7.88689 10.1877V10.1622V10.0855V0.805868C7.88689 0.767522 7.87411 0.741959 7.89967 0.703613C10.4944 5.01109 13.0891 9.30579 15.671 13.6133C15.6966 13.6516 15.7349 13.7027 15.7477 13.7539C15.5688 13.69 15.4026 13.6005 15.2364 13.5238C15.0319 13.4343 14.8146 13.3321 14.6101 13.2426C14.4823 13.1787 14.3417 13.1276 14.2139 13.0636C13.9966 12.9614 13.7793 12.8719 13.562 12.7697C13.4342 12.7185 13.3064 12.6546 13.1786 12.5907L12.335 12.2073C12.1944 12.1434 12.0538 12.0794 11.9004 12.0155L11.2869 11.7471C11.159 11.696 11.0312 11.6321 10.9034 11.5682L10.0598 11.1847C9.9192 11.1208 9.7786 11.0569 9.62522 10.993L9.01169 10.7246C8.87109 10.6607 8.74327 10.5968 8.60267 10.5328C8.35982 10.4178 8.11696 10.3028 7.86133 10.2005C7.89967 10.1877 7.88689 10.1877 7.88689 10.1877Z" fill="#C5C8D9"/>
</svg>
