<svg width="100" height="100" viewBox="0 0 100 100" fill="none" xmlns="http://www.w3.org/2000/svg">
<path opacity="0.2" d="M15.625 44.7917V21.875C15.625 21.0462 15.9542 20.2513 16.5403 19.6653C17.1263 19.0792 17.9212 18.75 18.75 18.75H81.25C82.0788 18.75 82.8737 19.0792 83.4597 19.6653C84.0458 20.2513 84.375 21.0462 84.375 21.875V44.7917C84.375 77.6102 56.5211 88.4831 50.9595 90.327C50.3377 90.541 49.6623 90.541 49.0405 90.327C43.4789 88.4831 15.625 77.6102 15.625 44.7917Z" fill="#7C66EB"/>
<path d="M15.625 44.7917V21.875C15.625 21.0462 15.9542 20.2513 16.5403 19.6653C17.1263 19.0792 17.9212 18.75 18.75 18.75H81.25C82.0788 18.75 82.8737 19.0792 83.4597 19.6653C84.0458 20.2513 84.375 21.0462 84.375 21.875V44.7917C84.375 77.6102 56.5211 88.4831 50.9595 90.327C50.3377 90.541 49.6623 90.541 49.0405 90.327C43.4789 88.4831 15.625 77.6102 15.625 44.7917Z" stroke="#7C66EB" stroke-width="6.25" stroke-linecap="round" stroke-linejoin="round"/>
<path d="M67.1875 40.625L44.2707 62.5L32.8125 51.5625" stroke="#7C66EB" stroke-width="6.25" stroke-linecap="round" stroke-linejoin="round"/>
</svg>
