<svg width="30" height="30" viewBox="0 0 30 30" fill="none" xmlns="http://www.w3.org/2000/svg">
<path d="M15.4678 25.3105H5.58496C5.34668 25.3105 5.11816 25.2159 4.94967 25.0474C4.78118 24.8789 4.68652 24.6504 4.68652 24.4121V14.5293C4.68652 13.1135 4.96539 11.7115 5.5072 10.4035C6.049 9.09544 6.84314 7.90692 7.84427 6.9058C8.8454 5.90467 10.0339 5.11053 11.342 4.56872C12.65 4.02691 14.0519 3.74805 15.4678 3.74805H15.4678C16.8836 3.74805 18.2855 4.02691 19.5936 4.56872C20.9016 5.11053 22.0901 5.90467 23.0913 6.9058C24.0924 7.90693 24.8865 9.09545 25.4283 10.4035C25.9702 11.7115 26.249 13.1135 26.249 14.5293V14.5293C26.249 17.3887 25.1131 20.1309 23.0913 22.1528C21.0694 24.1747 18.3272 25.3105 15.4678 25.3105Z" stroke="white" stroke-width="2.5" stroke-linecap="round" stroke-linejoin="round"/>
</svg>
