<svg width="51" height="51" viewBox="0 0 51 51" fill="none" xmlns="http://www.w3.org/2000/svg">
<path fill-rule="evenodd" clip-rule="evenodd" d="M1 24.201C0.447715 24.201 0 24.6487 0 25.201C0 25.7533 0.447715 26.201 1 26.201L22 26.201V24.201L1 24.201ZM24.201 21.9998H26.201V1.00001C26.201 0.447722 25.7533 6.35782e-06 25.201 7.45364e-06C24.6487 8.50731e-06 24.201 0.447723 24.201 1.00001V21.9998ZM28 24.201V26.201H49.402C49.9543 26.201 50.402 25.7533 50.402 25.201C50.402 24.6487 49.9543 24.201 49.402 24.201H28ZM26.201 27.9998H24.201V49.402C24.201 49.9543 24.6487 50.402 25.201 50.402C25.7533 50.402 26.201 49.9543 26.201 49.402V27.9998Z" fill="#162534"/>
</svg>
