<svg width="25" height="25" viewBox="0 0 25 25" fill="none" xmlns="http://www.w3.org/2000/svg">
<path opacity="0.2" d="M12.351 21.6142C17.4669 21.6142 21.6142 17.4669 21.6142 12.351C21.6142 7.23515 17.4669 3.08789 12.351 3.08789C7.23515 3.08789 3.08789 7.23515 3.08789 12.351C3.08789 17.4669 7.23515 21.6142 12.351 21.6142Z" fill="#60BA62"/>
<path d="M12.351 21.6142C17.4669 21.6142 21.6142 17.4669 21.6142 12.351C21.6142 7.23515 17.4669 3.08789 12.351 3.08789C7.23515 3.08789 3.08789 7.23515 3.08789 12.351C3.08789 17.4669 7.23515 21.6142 12.351 21.6142Z" stroke="#60BA62" stroke-width="1.54386" stroke-miterlimit="10"/>
<path d="M9.07617 11.7662L12.3512 8.49121L15.6262 11.7662" stroke="#60BA62" stroke-width="1.54386" stroke-linecap="round" stroke-linejoin="round"/>
<path d="M12.3506 16.2105L12.3506 8.49121" stroke="#60BA62" stroke-width="1.54386" stroke-linecap="round" stroke-linejoin="round"/>
</svg>
