<svg width="18" height="18" viewBox="0 0 18 18" fill="none" xmlns="http://www.w3.org/2000/svg">
<path d="M14.9394 0.326172L17.4691 0.326172L12.2045 6.62073C10.2979 8.89904 7.20685 8.89904 5.29892 6.62073L0.0322266 0.326172L2.56404 0.326172L6.56381 5.10778C7.14657 5.80134 7.93194 6.19015 8.75017 6.19015C9.56841 6.19015 10.3538 5.80134 10.9365 5.10778L14.9394 0.326172Z" fill="white"/>
<path d="M2.53147 17.8292H0L5.29883 11.4958C7.20539 9.21753 10.2965 9.21753 12.2044 11.4958L17.5032 17.8292H14.9735L10.9395 13.0088C10.3568 12.3152 9.57139 11.9264 8.75316 11.9264C7.93493 11.9264 7.14956 12.3152 6.56679 13.0088L2.53147 17.8292Z" fill="white"/>
</svg>
